<svg xmlns="http://www.w3.org/2000/svg" viewBox="0 0 32 32" width="512" height="512" shape-rendering="crispEdges" xmlns:c2pa="http://c2pa.org/manifest"><metadata><c2pa:manifest>AAAWgmp1bWIAAAAeanVtZGMycGEAEQAQgAAAqgA4m3EDYzJwYQAAABZcanVtYgAAAEdqdW1kYzJtYQARABCAAACqADibcQN1cm46YzJwYTo0ODY1MjUxZi0xODA0LTQ2NGYtODRiNS1hNjRmZjM2N2YzZjkAAAADl2p1bWIAAAApanVtZGMyYXMAEQAQgAAAqgA4m3EDYzJwYS5hc3NlcnRpb25zAAAAALxqdW1iAAAARGp1bWRjYm9yABEAEIAAAKoAOJtxE2MycGEuaW5ncmVkaWVudC52MwAAAAAYYzJzaGUrBjXfOu2LEEn4f+Laz+0AAABwY2JvcqNpZGM6Zm9ybWF0bWltYWdlL3N2Zyt4bWxqaW5zdGFuY2VJRHgseG1wOmlpZDozMzFlMmNmYy0wZWE1LTQ0MTgtODBkMC0yMGRmYmI0NWJiZmJscmVsYXRpb25zaGlwaHBhcmVudE9mAAAB4mp1bWIAAABBanVtZGNib3IAEQAQgAAAqgA4m3ETYzJwYS5hY3Rpb25zLnYyAAAAABhjMnNoB3JZrFuxiUGjZRqvOabRxwAAAZljYm9yomdhY3Rpb25zgqJmYWN0aW9ua2MycGEub3BlbmVkanBhcmFtZXRlcnOha2luZ3JlZGllbnRzgaJjdXJseC1zZWxmI2p1bWJmPWMycGEuYXNzZXJ0aW9ucy9jMnBhLmluZ3JlZGllbnQudjNkaGFzaFgg2HE2wIugZFaG9doXXHAeNnnlSv1eDKnlsqda59oFfyWkZmFjdGlvbngdY29tLmFudGhyb3BpYy5jbGF1ZGUucHJvdmlkZWRqcGFyYW1ldGVyc6F4H2NvbS5hbnRocm9waWMub3JpZ2luLWNvbmZpZGVuY2VndW5rbm93bmtkZXNjcmlwdGlvbnhmQ2xhdWRlIHByb3ZpZGVkIHRoaXMgZmlsZSBhdCB0aGUgcmVxdWVzdCBvZiBhIHVzZXIgYW5kIG1heSBoYXZlIGNyZWF0ZWQgb3IgbW9kaWZpZWQgdGhlIGZpbGUgY29udGVudHMubXNvZnR3YXJlQWdlbnShZG5hbWVmQ2xhdWRlcmFsbEFjdGlvbnNJbmNsdWRlZPUAAADIanVtYgAAAEBqdW1kY2JvcgARABCAAACqADibcRNjMnBhLmhhc2guZGF0YQAAAAAYYzJzaHLWlWFQHFxPiFQ1r9/dqgoAAACAY2JvcqVjYWxnZnNoYTI1NmNwYWRNAAAAAAAAAAAAAAAAAGRoYXNoWCACXBTqOtGAdlv+FQDpuAPIK5Z9fjDSi/sy2X6yFawcg2RuYW1lbmp1bWJmIG1hbmlmZXN0amV4Y2x1c2lvbnOBomVzdGFydBixZmxlbmd0aBkeBAAAAj5qdW1iAAAAJ2p1bWRjMmNsABEAEIAAAKoAOJtxA2MycGEuY2xhaW0udjIAAAACD2Nib3KlY2FsZ2ZzaGEyNTZpc2lnbmF0dXJleE1zZWxmI2p1bWJmPS9jMnBhL3VybjpjMnBhOjQ4NjUyNTFmLTE4MDQtNDY0Zi04NGI1LWE2NGZmMzY3ZjNmOS9jMnBhLnNpZ25hdHVyZWppbnN0YW5jZUlEeCx4bXA6aWlkOjMxYTM4ZDYzLWQ3YTEtNDI0ZS05OTA4LWExOTE1Yjg2NWEzNHJjcmVhdGVkX2Fzc2VydGlvbnODomN1cmx4LXNlbGYjanVtYmY9YzJwYS5hc3NlcnRpb25zL2MycGEuaW5ncmVkaWVudC52M2RoYXNoWCDYcTbAi6BkVob12hdccB42eeVK/V4MqeWyp1rn2gV/JaJjdXJseCpzZWxmI2p1bWJmPWMycGEuYXNzZXJ0aW9ucy9jMnBhLmFjdGlvbnMudjJkaGFzaFggscqI8zBYITbttE5JcPAVdepByX9DAazb2CuQ/ZwpKpCiY3VybHgpc2VsZiNqdW1iZj1jMnBhLmFzc2VydGlvbnMvYzJwYS5oYXNoLmRhdGFkaGFzaFgg+M72dIZet4LHxo1csHZUaaSZhNflAZYoxpHw0shArLp0Y2xhaW1fZ2VuZXJhdG9yX2luZm+jZG5hbWVvQW50aHJvcGljIEZpbGVzZ3ZlcnNpb25lMS4wLjBrc3BlY1ZlcnNpb25lMi40LjAAABA4anVtYgAAAChqdW1kYzJjcwARABCAAACqADibcQNjMnBhLnNpZ25hdHVyZQAAABAIY2JvctKEWQISogEmGCFZAgowggIGMIIBjaADAgECAhRA5aAK7sI50L64g/oGQgU9Z1UTADAKBggqhkjOPQQDAzBJMRcwFQYDVQQKEw5BbnRocm9waWMsIFBCQzEuMCwGA1UEAxMlQW50aHJvcGljIENvbnRlbnQgQ3JlZGVudGlhbHMgUm9vdCBDQTAeFw0yNjA4MDcxODQzNTZaFw0yODA4MDYxOTQzNTZaMEQxFzAVBgNVBAoTDkFudGhyb3BpYywgUEJDMSkwJwYDVQQDEyBBbnRocm9waWMgQ2xhdWRlIENvbnRlbnQgU2lnbmluZzBZMBMGByqGSM49AgEGCCqGSM49AwEHA0IABJh6CmvLUBgFFNU0vUKlOVtE6djd17L5SuwX0LemFisBM3dkd/3cyjxFA3Qo5S46fX0/ihY0VZ7mfb9KF703t5OjWDBWMA4GA1UdDwEB/wQEAwIHgDAVBgNVHSUEDjAMBgorBgEEAYPoXgIBMAwGA1UdEwEB/wQCMAAwHwYDVR0jBBgwFoAUzlHiBIFOZFsj+OPEz5o+nMHXXMIwCgYIKoZIzj0EAwMDZwAwZAIwMXMdFJ4BetLLVY7ORuE9noqbbAZOZn/aArXyTwFAZfKrPzxF2vPoJNf1+UCdg1XGAjBwX1zd9WGqYkqmL5SFqw1QySjr1zJfpJM9+1rdDwSPLMOPOjKuiXjoU/pUUeG9RwmhY3BhZFkNngAAAAAAAAAAAAAAAAAAAAAAAAAAAAAAAAAAAAAAAAAAAAAAAAAAAAAAAAAAAAAAAAAAAAAAAAAAAAAAAAAAAAAAAAAAAAAAAAAAAAAAAAAAAAAAAAAAAAAAAAAAAAAAAAAAAAAAAAAAAAAAAAAAAAAAAAAAAAAAAAAAAAAAAAAAAAAAAAAAAAAAAAAAAAAAAAAAAAAAAAAAAAAAAAAAAAAAAAAAAAAAAAAAAAAAAAAAAAAAAAAAAAAAAAAAAAAAAAAAAAAAAAAAAAAAAAAAAAAAAAAAAAAAAAAAAAAAAAAAAAAAAAAAAAAAAAAAAAAAAAAAAAAAAAAAAAAAAAAAAAAAAAAAAAAAAAAAAAAAAAAAAAAAAAAAAAAAAAAAAAAAAAAAAAAAAAAAAAAAAAAAAAAAAAAAAAAAAAAAAAAAAAAAAAAAAAAAAAAAAAAAAAAAAAAAAAAAAAAAAAAAAAAAAAAAAAAAAAAAAAAAAAAAAAAAAAAAAAAAAAAAAAAAAAAAAAAAAAAAAAAAAAAAAAAAAAAAAAAAAAAAAAAAAAAAAAAAAAAAAAAAAAAAAAAAAAAAAAAAAAAAAAAAAAAAAAAAAAAAAAAAAAAAAAAAAAAAAAAAAAAAAAAAAAAAAAAAAAAAAAAAAAAAAAAAAAAAAAAAAAAAAAAAAAAAAAAAAAAAAAAAAAAAAAAAAAAAAAAAAAAAAAAAAAAAAAAAAAAAAAAAAAAAAAAAAAAAAAAAAAAAAAAAAAAAAAAAAAAAAAAAAAAAAAAAAAAAAAAAAAAAAAAAAAAAAAAAAAAAAAAAAAAAAAAAAAAAAAAAAAAAAAAAAAAAAAAAAAAAAAAAAAAAAAAAAAAAAAAAAAAAAAAAAAAAAAAAAAAAAAAAAAAAAAAAAAAAAAAAAAAAAAAAAAAAAAAAAAAAAAAAAAAAAAAAAAAAAAAAAAAAAAAAAAAAAAAAAAAAAAAAAAAAAAAAAAAAAAAAAAAAAAAAAAAAAAAAAAAAAAAAAAAAAAAAAAAAAAAAAAAAAAAAAAAAAAAAAAAAAAAAAAAAAAAAAAAAAAAAAAAAAAAAAAAAAAAAAAAAAAAAAAAAAAAAAAAAAAAAAAAAAAAAAAAAAAAAAAAAAAAAAAAAAAAAAAAAAAAAAAAAAAAAAAAAAAAAAAAAAAAAAAAAAAAAAAAAAAAAAAAAAAAAAAAAAAAAAAAAAAAAAAAAAAAAAAAAAAAAAAAAAAAAAAAAAAAAAAAAAAAAAAAAAAAAAAAAAAAAAAAAAAAAAAAAAAAAAAAAAAAAAAAAAAAAAAAAAAAAAAAAAAAAAAAAAAAAAAAAAAAAAAAAAAAAAAAAAAAAAAAAAAAAAAAAAAAAAAAAAAAAAAAAAAAAAAAAAAAAAAAAAAAAAAAAAAAAAAAAAAAAAAAAAAAAAAAAAAAAAAAAAAAAAAAAAAAAAAAAAAAAAAAAAAAAAAAAAAAAAAAAAAAAAAAAAAAAAAAAAAAAAAAAAAAAAAAAAAAAAAAAAAAAAAAAAAAAAAAAAAAAAAAAAAAAAAAAAAAAAAAAAAAAAAAAAAAAAAAAAAAAAAAAAAAAAAAAAAAAAAAAAAAAAAAAAAAAAAAAAAAAAAAAAAAAAAAAAAAAAAAAAAAAAAAAAAAAAAAAAAAAAAAAAAAAAAAAAAAAAAAAAAAAAAAAAAAAAAAAAAAAAAAAAAAAAAAAAAAAAAAAAAAAAAAAAAAAAAAAAAAAAAAAAAAAAAAAAAAAAAAAAAAAAAAAAAAAAAAAAAAAAAAAAAAAAAAAAAAAAAAAAAAAAAAAAAAAAAAAAAAAAAAAAAAAAAAAAAAAAAAAAAAAAAAAAAAAAAAAAAAAAAAAAAAAAAAAAAAAAAAAAAAAAAAAAAAAAAAAAAAAAAAAAAAAAAAAAAAAAAAAAAAAAAAAAAAAAAAAAAAAAAAAAAAAAAAAAAAAAAAAAAAAAAAAAAAAAAAAAAAAAAAAAAAAAAAAAAAAAAAAAAAAAAAAAAAAAAAAAAAAAAAAAAAAAAAAAAAAAAAAAAAAAAAAAAAAAAAAAAAAAAAAAAAAAAAAAAAAAAAAAAAAAAAAAAAAAAAAAAAAAAAAAAAAAAAAAAAAAAAAAAAAAAAAAAAAAAAAAAAAAAAAAAAAAAAAAAAAAAAAAAAAAAAAAAAAAAAAAAAAAAAAAAAAAAAAAAAAAAAAAAAAAAAAAAAAAAAAAAAAAAAAAAAAAAAAAAAAAAAAAAAAAAAAAAAAAAAAAAAAAAAAAAAAAAAAAAAAAAAAAAAAAAAAAAAAAAAAAAAAAAAAAAAAAAAAAAAAAAAAAAAAAAAAAAAAAAAAAAAAAAAAAAAAAAAAAAAAAAAAAAAAAAAAAAAAAAAAAAAAAAAAAAAAAAAAAAAAAAAAAAAAAAAAAAAAAAAAAAAAAAAAAAAAAAAAAAAAAAAAAAAAAAAAAAAAAAAAAAAAAAAAAAAAAAAAAAAAAAAAAAAAAAAAAAAAAAAAAAAAAAAAAAAAAAAAAAAAAAAAAAAAAAAAAAAAAAAAAAAAAAAAAAAAAAAAAAAAAAAAAAAAAAAAAAAAAAAAAAAAAAAAAAAAAAAAAAAAAAAAAAAAAAAAAAAAAAAAAAAAAAAAAAAAAAAAAAAAAAAAAAAAAAAAAAAAAAAAAAAAAAAAAAAAAAAAAAAAAAAAAAAAAAAAAAAAAAAAAAAAAAAAAAAAAAAAAAAAAAAAAAAAAAAAAAAAAAAAAAAAAAAAAAAAAAAAAAAAAAAAAAAAAAAAAAAAAAAAAAAAAAAAAAAAAAAAAAAAAAAAAAAAAAAAAAAAAAAAAAAAAAAAAAAAAAAAAAAAAAAAAAAAAAAAAAAAAAAAAAAAAAAAAAAAAAAAAAAAAAAAAAAAAAAAAAAAAAAAAAAAAAAAAAAAAAAAAAAAAAAAAAAAAAAAAAAAAAAAAAAAAAAAAAAAAAAAAAAAAAAAAAAAAAAAAAAAAAAAAAAAAAAAAAAAAAAAAAAAAAAAAAAAAAAAAAAAAAAAAAAAAAAAAAAAAAAAAAAAAAAAAAAAAAAAAAAAAAAAAAAAAAAAAAAAAAAAAAAAAAAAAAAAAAAAAAAAAAAAAAAAAAAAAAAAAAAAAAAAAAAAAAAAAAAAAAAAAAAAAAAAAAAAAAAAAAAAAAAAAAAAAAAAAAAAAAAAAAAAAAAAAAAAAAAAAAAAAAAAAAAAAAAAAAAAAAAAAAAAAAAAAAAAAAAAAAAAAAAAAAAAAAAAAAAAAAAAAAAAAAAAAAAAAAAAAAAAAAAAAAAAAAAAAAAAAAAAAAAAAAAAAAAAAAAAAAAAAAAAAAAAAAAAAAAAAAAAAAAAAAAAAAAAAAAAAAAAAAAAAAAAAAAAAAAAAAAAAAAAAAAAAAAAAAAAAAAAAAAAAAAAAAAAAAAAAAAAAAAAAAAAAAAAAAAAAAAAAAAAAAAAAAAAAAAAAAAAAAAAAAAAAAAAAAAAAAAAAAAAAAAAAAAAAAAAAAAAAAAAAAAAAAAAAAAAAAAAAAAAAAAAAAAAAAAAAAAAAAAAAAAAAAAAAAAAAAAAAAAAAAAAAAAAAAAAAAAAAAAAAAAAAAAAAAAAAAAAAAAAAAAAAAAAAAAAAAAAAAAAAAAAAAAAAAAAAAAAAAAAAAAAAAAAAAAAAAAAAAAAAAAAAAAAAAAAAAAAAAAAAAAAAAAAAAAAAAAAAAAAAAAAAAAAAAAAAAAAAAAAAAAAAAAAAAAAAAAAAAAAAAAAAAAAAAAAAAAAAAAAAAAAAAAAAAAAAAAAAAAAAAAAAAAAAAAAAAAAAAAAAAAAAAAAAAAAAAAAAAAAAAAAAAAAAAAAAAAAAAAAAAAAAAAAAAAAAAAAAAAAAAAAAAAAAAAAAAAAAAAAAAAAAAAAAAAAAAAAAAAAAAAAAAAAAAAAAAAAAAAAAAAAAAAAAAAAAAAAAAAAAAAAAAAAAAAAAAAAAAAAAAAAAAAAAAAAAAAAAAAAAAAAAAAAAAAAAAAAAAAAAAAAAAAAAAAAAAAAAAAAAAAAAAAAAAAAAAAAAAAAAAAAAAAAAAAAAAAAAAAAAAAAAAAAAAAAAAAAAAAAAAAAAAAAAAAAAAAAAAAAAAAAAAAAAAAAAAAAAAAAAAAAAAAAAAAAAAAAAAAAAAAAAAAAAAAAAAAAAAAAAAAAAAAAAAAAAAAAAAAAAAAAAAAAAAAAAAAAAAAAAAAAAAAAAAAAAAAAAAAAAAAAAAAAAAAAAAAAAAAAAAAAAAAAAAAAAAAAAAAAAAAAAAAAAAAAAAAAAAAAAAAAAAAAAAAAAAAAAAAAAAAAAAAAAAAAAAAAAAAAAAAAAAAAAAAAAAAAAAAAAAAAAAAAAAAAAAAAAAAAAAAAAAAAAAAAAAAAAAAAAAAAAAAAAAAAAAAAAAAAAAAAAAAAAAAAAAAAAAAAAAAAAAAAAAAAAAAAAAAAAAAAAAAAAAAAAAAAAAAAAAAAAAAAAAAAAAAAAAAAAAAAAAAAAAAAAAAAAAAAAAAAAAAAAAAAAAAAAAAAAAAAAAAAAAAAAAAAAAAAAAAAAAAAAAAAAAAAAAAAAAAAAAAAAAAAAAAAAAAAAAAAAAAAAAAAAAAAAAAAAAAAAAAAAAAAAAAAAAAAAAAAAAAAAAAAAAAAAAAAAAAAAAAAAAAAAAAAAAAAAAAAAAAAAPZYQDkGxhOs90/NX7hiKmiVPd7jga4KEt3raEXluLeYRVmHlq+6lKA/hSv1VFbFi2zEW6vJWMWdRQX6VN07cTx1Gmk=</c2pa:manifest></metadata>
  <polygon points="0,0 32,0 32,32 0,32" fill="#8ecae6"></polygon>
  <polygon points="2,5 7,5 7,7 2,7" fill="#ffffff"></polygon>
  <polygon points="3,4 6,4 6,5 3,5" fill="#ffffff"></polygon>
  <polygon points="25,16 31,16 31,18 25,18" fill="#ffffff"></polygon>
  <polygon points="26,15 29,15 29,16 26,16" fill="#ffffff"></polygon>
  <polygon points="16,21 32,29 32,32 0,32 0,29" fill="#4b8b3b"></polygon>
  <polygon points="16,21 32,29 0,29" fill="#5da349"></polygon>
  <polygon points="3.2,26.5 4.300000000000001,26.5 4.300000000000001,29 3.2,29" fill="#7a4a2a" stroke="#221c2b" stroke-width="0.4" stroke-linejoin="round"></polygon>
  <polygon points="2,26 3.75,23 5.5,26" fill="#3f7c33" stroke="#221c2b" stroke-width="0.4" stroke-linejoin="round"></polygon>
  <polygon points="3.75,23 5.5,26 3.75,26" fill="#57a044"></polygon>
  <polygon points="27.7,26 28.8,26 28.8,28.5 27.7,28.5" fill="#7a4a2a" stroke="#221c2b" stroke-width="0.4" stroke-linejoin="round"></polygon>
  <polygon points="26.5,25.5 28.25,22.5 30,25.5" fill="#3f7c33" stroke="#221c2b" stroke-width="0.4" stroke-linejoin="round"></polygon>
  <polygon points="28.25,22.5 30,25.5 28.25,25.5" fill="#57a044"></polygon>
  <polygon points="16,19 24,23 16,27 8,23" fill="#f9c584" stroke="#221c2b" stroke-width="0.4" stroke-linejoin="round"></polygon>
  <polygon points="8,23 16,27 16,31.5 8,27.5" fill="#b25f22" stroke="#221c2b" stroke-width="0.4" stroke-linejoin="round"></polygon>
  <polygon points="16,27 24,23 24,27.5 16,31.5" fill="#ee9646" stroke="#221c2b" stroke-width="0.4" stroke-linejoin="round"></polygon>
  <polygon points="17,28.7 18.8,27.8 18.8,29.5 17,30.4" fill="#f5c33b" stroke="#221c2b" stroke-width="0.4" stroke-linejoin="round"></polygon>
  <polygon points="9,25.7 10.8,26.599999999999998 10.8,28.299999999999997 9,27.4" fill="#c9902c" stroke="#221c2b" stroke-width="0.4" stroke-linejoin="round"></polygon>
  <polygon points="19.4,27.5 21.2,26.599999999999998 21.2,28.299999999999997 19.4,29.2" fill="#8fd2ee" stroke="#221c2b" stroke-width="0.4" stroke-linejoin="round"></polygon>
  <polygon points="11.4,26.9 13.2,27.8 13.2,29.5 11.4,28.599999999999998" fill="#4e9ec4" stroke="#221c2b" stroke-width="0.4" stroke-linejoin="round"></polygon>
  <polygon points="21.8,26.3 23.6,25.4 23.6,27.099999999999998 21.8,28" fill="#8fd2ee" stroke="#221c2b" stroke-width="0.4" stroke-linejoin="round"></polygon>
  <polygon points="13.8,28.099999999999998 15.6,29 15.6,30.7 13.8,29.799999999999997" fill="#4e9ec4" stroke="#221c2b" stroke-width="0.4" stroke-linejoin="round"></polygon>
  <polygon points="16,27.4 24,23.4 24,24.5 16,28.5" fill="#f5c33b" stroke="#221c2b" stroke-width="0.4" stroke-linejoin="round"></polygon>
  <polygon points="8,23.4 16,27.4 16,28.5 8,24.5" fill="#c9902c" stroke="#221c2b" stroke-width="0.4" stroke-linejoin="round"></polygon>
  <polygon points="16.9,27.150000000000002 18.1,26.55 18.1,27.25 16.9,27.85" fill="#221c2b"></polygon>
  <polygon points="19,26.1 20.2,25.5 20.2,26.2 19,26.8" fill="#221c2b"></polygon>
  <polygon points="21.1,25.05 22.3,24.450000000000003 22.3,25.150000000000002 21.1,25.75" fill="#221c2b"></polygon>
  <polygon points="16,10 22,13 16,16 10,13" fill="#f9c584" stroke="#221c2b" stroke-width="0.4" stroke-linejoin="round"></polygon>
  <polygon points="10,13 16,16 16,26 10,23" fill="#b25f22" stroke="#221c2b" stroke-width="0.4" stroke-linejoin="round"></polygon>
  <polygon points="16,16 22,13 22,23 16,26" fill="#ee9646" stroke="#221c2b" stroke-width="0.4" stroke-linejoin="round"></polygon>
  <polygon points="16.3,17.15 17.9,16.35 17.9,17.85 16.3,18.65" fill="#f5c33b" stroke="#221c2b" stroke-width="0.4" stroke-linejoin="round"></polygon>
  <polygon points="10.3,14.450000000000001 11.9,15.25 11.9,16.75 10.3,15.950000000000001" fill="#c9902c" stroke="#221c2b" stroke-width="0.4" stroke-linejoin="round"></polygon>
  <polygon points="18.2,16.2 19.8,15.4 19.8,16.9 18.2,17.7" fill="#8fd2ee" stroke="#221c2b" stroke-width="0.4" stroke-linejoin="round"></polygon>
  <polygon points="12.2,15.4 13.8,16.2 13.8,17.7 12.2,16.9" fill="#4e9ec4" stroke="#221c2b" stroke-width="0.4" stroke-linejoin="round"></polygon>
  <polygon points="20.1,15.25 21.7,14.450000000000001 21.7,15.950000000000001 20.1,16.75" fill="#8fd2ee" stroke="#221c2b" stroke-width="0.4" stroke-linejoin="round"></polygon>
  <polygon points="14.1,16.35 15.7,17.15 15.7,18.65 14.1,17.85" fill="#4e9ec4" stroke="#221c2b" stroke-width="0.4" stroke-linejoin="round"></polygon>
  <polygon points="16.3,19.35 17.9,18.55 17.9,20.05 16.3,20.85" fill="#8fd2ee" stroke="#221c2b" stroke-width="0.4" stroke-linejoin="round"></polygon>
  <polygon points="10.3,16.65 11.9,17.45 11.9,18.95 10.3,18.15" fill="#4e9ec4" stroke="#221c2b" stroke-width="0.4" stroke-linejoin="round"></polygon>
  <polygon points="18.2,18.4 19.8,17.6 19.8,19.1 18.2,19.9" fill="#8fd2ee" stroke="#221c2b" stroke-width="0.4" stroke-linejoin="round"></polygon>
  <polygon points="12.2,17.6 13.8,18.4 13.8,19.9 12.2,19.1" fill="#4e9ec4" stroke="#221c2b" stroke-width="0.4" stroke-linejoin="round"></polygon>
  <polygon points="20.1,17.45 21.7,16.65 21.7,18.15 20.1,18.95" fill="#f5c33b" stroke="#221c2b" stroke-width="0.4" stroke-linejoin="round"></polygon>
  <polygon points="14.1,18.55 15.7,19.35 15.7,20.85 14.1,20.05" fill="#c9902c" stroke="#221c2b" stroke-width="0.4" stroke-linejoin="round"></polygon>
  <polygon points="16.3,21.55 17.9,20.75 17.9,22.25 16.3,23.05" fill="#8fd2ee" stroke="#221c2b" stroke-width="0.4" stroke-linejoin="round"></polygon>
  <polygon points="10.3,18.85 11.9,19.65 11.9,21.15 10.3,20.35" fill="#4e9ec4" stroke="#221c2b" stroke-width="0.4" stroke-linejoin="round"></polygon>
  <polygon points="18.2,20.6 19.8,19.8 19.8,21.3 18.2,22.1" fill="#8fd2ee" stroke="#221c2b" stroke-width="0.4" stroke-linejoin="round"></polygon>
  <polygon points="12.2,19.8 13.8,20.6 13.8,22.1 12.2,21.3" fill="#4e9ec4" stroke="#221c2b" stroke-width="0.4" stroke-linejoin="round"></polygon>
  <polygon points="20.1,19.65 21.7,18.85 21.7,20.35 20.1,21.15" fill="#8fd2ee" stroke="#221c2b" stroke-width="0.4" stroke-linejoin="round"></polygon>
  <polygon points="14.1,20.75 15.7,21.55 15.7,23.05 14.1,22.25" fill="#4e9ec4" stroke="#221c2b" stroke-width="0.4" stroke-linejoin="round"></polygon>
  <polygon points="16.3,23.75 17.9,22.950000000000003 17.9,24.450000000000003 16.3,25.25" fill="#8fd2ee" stroke="#221c2b" stroke-width="0.4" stroke-linejoin="round"></polygon>
  <polygon points="10.3,21.05 11.9,21.85 11.9,23.35 10.3,22.55" fill="#4e9ec4" stroke="#221c2b" stroke-width="0.4" stroke-linejoin="round"></polygon>
  <polygon points="18.2,22.8 19.8,22 19.8,23.5 18.2,24.3" fill="#f5c33b" stroke="#221c2b" stroke-width="0.4" stroke-linejoin="round"></polygon>
  <polygon points="12.2,22 13.8,22.8 13.8,24.3 12.2,23.5" fill="#c9902c" stroke="#221c2b" stroke-width="0.4" stroke-linejoin="round"></polygon>
  <polygon points="20.1,21.85 21.7,21.05 21.7,22.55 20.1,23.35" fill="#8fd2ee" stroke="#221c2b" stroke-width="0.4" stroke-linejoin="round"></polygon>
  <polygon points="14.1,22.950000000000003 15.7,23.75 15.7,25.25 14.1,24.450000000000003" fill="#4e9ec4" stroke="#221c2b" stroke-width="0.4" stroke-linejoin="round"></polygon>
  <polygon points="16,7.5 22.5,10.5 16,13.5 9.5,10.5" fill="#eef2f6" stroke="#221c2b" stroke-width="0.4" stroke-linejoin="round"></polygon>
  <polygon points="9.5,10.5 16,13.5 16,14.6 9.5,11.6" fill="#bcc5d3" stroke="#221c2b" stroke-width="0.4" stroke-linejoin="round"></polygon>
  <polygon points="16,13.5 22.5,10.5 22.5,11.6 16,14.6" fill="#eef2f6" stroke="#221c2b" stroke-width="0.4" stroke-linejoin="round"></polygon>
  <polygon points="16,5 20,7 16,9 12,7" fill="#eef2f6" stroke="#221c2b" stroke-width="0.4" stroke-linejoin="round"></polygon>
  <polygon points="12,7 16,9 16,12.2 12,10.2" fill="#4e9ec4" stroke="#221c2b" stroke-width="0.4" stroke-linejoin="round"></polygon>
  <polygon points="16,9 20,7 20,10.2 16,12.2" fill="#8fd2ee" stroke="#221c2b" stroke-width="0.4" stroke-linejoin="round"></polygon>
  <polygon points="17.3,8.35 17.75,8.125 17.75,11.325 17.3,11.55" fill="#221c2b"></polygon>
  <polygon points="13.3,5.65 13.75,5.875 13.75,9.075 13.3,8.850000000000001" fill="#221c2b"></polygon>
  <polygon points="19.2,7.4 19.65,7.175 19.65,10.375 19.2,10.600000000000001" fill="#221c2b"></polygon>
  <polygon points="15.2,6.6 15.65,6.825 15.65,10.025 15.2,9.8" fill="#221c2b"></polygon>
  <polygon points="12,7 16,9 16,3.5" fill="#255f8c" stroke="#221c2b" stroke-width="0.4" stroke-linejoin="round"></polygon>
  <polygon points="16,9 20,7 16,3.5" fill="#3d8fc4" stroke="#221c2b" stroke-width="0.4" stroke-linejoin="round"></polygon>
  <polygon points="12,7 16,9 16,10 12,8" fill="#f5c33b" stroke="#221c2b" stroke-width="0.4" stroke-linejoin="round"></polygon>
  <polygon points="16,9 20,7 20,8 16,10" fill="#f5c33b" stroke="#221c2b" stroke-width="0.4" stroke-linejoin="round"></polygon>
  <polygon points="15.4,0 16.3,0 16.3,4 15.4,4" fill="#221c2b"></polygon>
  <polygon points="16.3,0.2 21,1.8 16.3,3.4" fill="#e0533f" stroke="#221c2b" stroke-width="0.4" stroke-linejoin="round"></polygon>
</svg>